<svg xmlns="http://www.w3.org/2000/svg" viewBox="0 0 24 24" fill="#A855F7" stroke="#A855F7" stroke-width="1">
  {/* Simplified Brain Placeholder - Replace with your actual SVG content */}
  <path d="M12 2C9.25 2 7 4.25 7 7c0 1.67.83 3.14 2.08 4.06A5.992 5.992 0 008 15.5C8 18.53 10.47 21 13.5 21s5.5-2.47 5.5-5.5a5.992 5.992 0 00-1.08-3.44C19.17 10.14 20 8.67 20 7c0-2.75-2.25-5-5-5h-1c-1.1 0-2 .9-2 2s.9 2 2 2h1c.55 0 1 .45 1 1s-.45 1-1 1h-1c-1.1 0-2-.9-2-2s.9-2 2-2h1c.55 0 1-.45 1-1s-.45-1-1-1h-1c-1.66 0-3 1.34-3 3s1.34 3 3 3h1c1.1 0 2-.9 2-2s-.9-2-2-2h-1c-.55 0-1-.45-1-1s.45-1 1-1zm-2 8.5a2.5 2.5 0 110-5 2.5 2.5 0 010 5z"/>
  <path d="M13.5 15.25c-.69 0-1.33.16-1.9.44-.57-.28-1.21-.44-1.9-.44-1.02 0-1.94.39-2.63.97.1.13.19.27.28.4.7-.59 1.62-.97 2.6-.97.98 0 1.89.38 2.6.97.09-.13.18-.27.28-.4-.7-.58-1.62-.97-2.63-.97z"/>
</svg>
